<?xml version="1.0" encoding="UTF-8" standalone="no"?>
<!-- Created with Inkscape (http://www.inkscape.org/) -->

<svg
   version="1.1"
   id="svg1"
   width="41.93692"
   height="56.862892"
   viewBox="0 0 41.936921 56.862893"
   sodipodi:docname="dummmm.svg"
   xml:space="preserve"
   inkscape:version="1.4.2 (f4327f4, 2025-05-13)"
   inkscape:export-filename="C:\My Web Sites\Abogado\fexlaw.com\wp-content\uploads\elementor\css\imagenescss\logo_2.png"
   inkscape:export-xdpi="949.60767"
   inkscape:export-ydpi="949.60767"
   xmlns:inkscape="http://www.inkscape.org/namespaces/inkscape"
   xmlns:sodipodi="http://sodipodi.sourceforge.net/DTD/sodipodi-0.dtd"
   xmlns:xlink="http://www.w3.org/1999/xlink"
   xmlns="http://www.w3.org/2000/svg"
   xmlns:svg="http://www.w3.org/2000/svg"><defs
     id="defs1"><linearGradient
       id="swatch29"
       inkscape:swatch="solid"><stop
         style="stop-color:#000000;stop-opacity:1;"
         offset="0"
         id="stop29" /></linearGradient><linearGradient
       id="swatch28"
       inkscape:swatch="solid"><stop
         style="stop-color:#15175a;stop-opacity:1;"
         offset="0"
         id="stop28" /></linearGradient><linearGradient
       id="swatch27"
       inkscape:swatch="solid"><stop
         style="stop-color:#000000;stop-opacity:1;"
         offset="0"
         id="stop27" /></linearGradient><linearGradient
       id="swatch26"
       inkscape:swatch="solid"><stop
         style="stop-color:#000000;stop-opacity:1;"
         offset="0"
         id="stop26" /></linearGradient><linearGradient
       id="swatch25"
       inkscape:swatch="solid"><stop
         style="stop-color:#000000;stop-opacity:1;"
         offset="0"
         id="stop25" /></linearGradient><linearGradient
       id="swatch24"
       inkscape:swatch="solid"><stop
         style="stop-color:#000000;stop-opacity:1;"
         offset="0"
         id="stop24" /></linearGradient><linearGradient
       id="swatch23"
       inkscape:swatch="solid"><stop
         style="stop-color:#d50000;stop-opacity:1;"
         offset="0"
         id="stop23" /></linearGradient><linearGradient
       id="swatch22"
       inkscape:swatch="solid"><stop
         style="stop-color:#ffffff;stop-opacity:1;"
         offset="0"
         id="stop22" /></linearGradient><linearGradient
       id="swatch2"
       inkscape:swatch="solid"><stop
         style="stop-color:#000000;stop-opacity:1;"
         offset="0"
         id="stop2" /></linearGradient><linearGradient
       inkscape:collect="always"
       xlink:href="#linearGradient10"
       id="linearGradient12"
       x1="239.70476"
       y1="461.48404"
       x2="235.248"
       y2="722.05872"
       gradientUnits="userSpaceOnUse"
       gradientTransform="matrix(0.26595052,0,0,0.24900233,195.21822,172.5001)" /><linearGradient
       id="linearGradient10"
       inkscape:collect="always"><stop
         style="stop-color:#15175a;stop-opacity:1;"
         offset="0"
         id="stop11" /><stop
         style="stop-color:#181f31;stop-opacity:0.74901961;"
         offset="0.5"
         id="stop13" /><stop
         style="stop-color:#1e3148;stop-opacity:0;"
         offset="1"
         id="stop12" /></linearGradient><linearGradient
       inkscape:collect="always"
       xlink:href="#linearGradient13"
       id="linearGradient15"
       x1="190.56668"
       y1="335.80029"
       x2="188.07359"
       y2="566.3725"
       gradientUnits="userSpaceOnUse"
       gradientTransform="matrix(0.26595052,0,0,0.24900233,195.21822,172.5001)" /><linearGradient
       id="linearGradient13"
       inkscape:collect="always"><stop
         style="stop-color:#d09756;stop-opacity:1;"
         offset="0"
         id="stop14" /><stop
         style="stop-color:#905d10;stop-opacity:0.74901962;"
         offset="0.12353837"
         id="stop17" /><stop
         style="stop-color:#f1d45a;stop-opacity:0.49803922;"
         offset="0.56734657"
         id="stop16" /></linearGradient><linearGradient
       inkscape:collect="always"
       xlink:href="#linearGradient8"
       id="linearGradient9"
       x1="132.64365"
       y1="390.17697"
       x2="137.87401"
       y2="695.37878"
       gradientUnits="userSpaceOnUse"
       gradientTransform="matrix(0.26595052,0,0,0.24900233,195.21822,172.5001)" /><linearGradient
       id="linearGradient8"
       inkscape:collect="always"><stop
         style="stop-color:#15175a;stop-opacity:1;"
         offset="0"
         id="stop8" /><stop
         style="stop-color:#1c2437;stop-opacity:0.49803922;"
         offset="0.52313024"
         id="stop10" /><stop
         style="stop-color:#1e3148;stop-opacity:0;"
         offset="1"
         id="stop9" /></linearGradient></defs><sodipodi:namedview
     id="namedview1"
     pagecolor="#7c848c"
     bordercolor="#999999"
     borderopacity="1"
     inkscape:showpageshadow="2"
     inkscape:pageopacity="0"
     inkscape:pagecheckerboard="0"
     inkscape:deskcolor="#beffff"
     inkscape:zoom="3.8228116"
     inkscape:cx="63.958161"
     inkscape:cy="70.236262"
     inkscape:window-width="1366"
     inkscape:window-height="745"
     inkscape:window-x="-8"
     inkscape:window-y="-8"
     inkscape:window-maximized="1"
     inkscape:current-layer="g1"><inkscape:page
       x="0"
       y="0"
       width="41.93692"
       height="56.862892"
       id="page2"
       margin="0"
       bleed="0" /></sodipodi:namedview><g
     inkscape:groupmode="layer"
     inkscape:label="Image"
     id="g1"
     transform="translate(-224.28177,-242.72928)"><path
       style="fill:url(#linearGradient12);stroke-width:0.154402;stroke-dasharray:none"
       d="m 252.70076,254.23982 13.51793,9.7033 -0.33795,29.00441 -13.29263,6.64464 z"
       id="path5"
       sodipodi:nodetypes="ccccc"
       inkscape:export-filename="C:\My Web Sites\Abogado\fexlaw.com\imagenes\servicio_1.svg"
       inkscape:export-xdpi="96"
       inkscape:export-ydpi="96" /><path
       style="fill:url(#linearGradient15);stroke-width:0.154402;stroke-dasharray:none"
       d="m 238.3613,250.67449 13.51226,-7.94521 -0.63724,49.26901 -12.61673,-6.53918 z"
       id="path4"
       sodipodi:nodetypes="ccccc" /><path
       style="fill:url(#linearGradient9);stroke:none;stroke-width:0.154402;stroke-dasharray:none"
       d="m 224.60039,258.28206 12.46309,-7.25498 0.51092,40.33838 -13.29263,-7.17199 z"
       id="path3"
       sodipodi:nodetypes="ccccc" /><path
       style="fill:#ffffff;stroke-width:1.10619"
       d="m 243.66211,285.49432 c -0.10613,-0.0125 -0.51123,-0.0552 -0.90028,-0.095 -3.06049,-0.31271 -5.52328,-1.23962 -6.26326,-2.35727 -0.22186,-0.33509 -0.25601,-0.82865 -0.0816,-1.1795 0.43098,-0.86706 2.03649,-1.69713 4.18157,-2.16197 1.01546,-0.22004 1.15845,-0.20973 0.39489,0.0285 -0.82738,0.25812 -1.48993,0.60157 -1.82613,0.94663 -0.5387,0.55288 -0.53306,1.05155 0.0179,1.58044 0.68742,0.65993 1.85962,1.08091 3.93035,1.41155 0.93438,0.14919 3.78712,0.1677 4.82292,0.0313 2.33837,-0.30798 4.04201,-0.99719 4.43896,-1.79579 0.22675,-0.45614 0.1454,-0.82592 -0.26967,-1.22592 -0.41244,-0.39745 -1.29594,-0.8377 -2.03458,-1.01383 -0.47043,-0.11217 -0.36638,-0.16871 0.13011,-0.0707 2.76057,0.54493 4.54911,1.51485 4.77961,2.59199 0.17312,0.80893 -0.83054,1.75426 -2.5017,2.35627 -1.91156,0.68861 -4.13791,1.00307 -6.98059,0.98599 -0.90505,-0.005 -1.73237,-0.0201 -1.83846,-0.0326 z m 1.87553,-4.47841 c -0.68861,-2.50248 -1.49309,-4.09827 -2.87798,-5.70891 -0.32773,-0.38114 -1.19321,-1.29338 -1.92328,-2.02719 -1.96443,-1.97449 -2.79695,-2.99447 -3.45423,-4.232 -1.04697,-1.97129 -1.39781,-4.29006 -0.98293,-6.49654 0.56604,-3.01038 2.43503,-5.53024 5.11219,-6.89252 1.55607,-0.79181 2.76231,-1.05156 4.59553,-0.98963 1.53092,0.0517 2.48263,0.29395 3.82852,0.97445 2.7557,1.39333 4.66244,4.00387 5.17592,7.08645 0.38223,2.2947 -0.0523,4.70068 -1.20146,6.65157 -0.60109,1.02049 -1.16513,1.69246 -3.20134,3.81392 -2.51944,2.62492 -3.1669,3.46516 -3.92309,5.0912 -0.25655,0.55167 -0.71378,1.89458 -0.95171,2.7952 l -0.0871,0.33 z m 1.61179,-11.83732 c 0.76261,-0.26222 1.40145,-0.66166 1.9247,-1.20343 0.506,-0.52391 0.73884,-0.86118 1.02112,-1.47901 0.34079,-0.74594 0.43803,-1.21739 0.4356,-2.11197 -0.005,-1.46347 -0.41226,-2.48406 -1.40082,-3.50175 -0.66687,-0.68652 -1.1699,-1.01419 -1.99542,-1.29976 -0.52672,-0.18222 -0.65678,-0.20063 -1.44687,-0.20479 -1.00283,-0.005 -1.4109,0.0841 -2.21854,0.48612 -1.20402,0.59924 -2.13262,1.72846 -2.55025,3.1012 -0.12995,0.42712 -0.15007,0.62623 -0.14673,1.45198 0.003,0.85423 0.0223,1.01367 0.17523,1.48498 0.49252,1.51748 1.6465,2.73406 3.08083,3.24792 0.64468,0.23097 0.99532,0.27943 1.82553,0.25228 0.58304,-0.0191 0.81869,-0.0598 1.29562,-0.22377 z m -5.46071,10.30726 c 0.0464,-0.019 0.10187,-0.0167 0.12326,0.005 0.0214,0.022 -0.0167,0.0375 -0.0844,0.0347 -0.075,-0.003 -0.0902,-0.0188 -0.0388,-0.0399 z m 7.77699,10e-4 c 0.0442,-0.0184 0.11655,-0.0184 0.16076,0 0.0442,0.0183 0.008,0.0333 -0.0804,0.0333 -0.0885,0 -0.12458,-0.015 -0.0804,-0.0333 z"
       id="path31" /></g></svg>
