<?xml version="1.0" encoding="UTF-8" standalone="no"?>
<!-- Created with Inkscape (http://www.inkscape.org/) -->

<svg
   version="1.1"
   id="svg1"
   width="157.68692"
   height="228.36288"
   viewBox="0 0 157.68692 228.36288"
   sodipodi:docname="png-transparent-laurel-wreath-bay-laurel-symbol-symbol-miscellaneous-leaf-logo (1).svg"
   xml:space="preserve"
   inkscape:version="1.4.2 (f4327f4, 2025-05-13)"
   xmlns:inkscape="http://www.inkscape.org/namespaces/inkscape"
   xmlns:sodipodi="http://sodipodi.sourceforge.net/DTD/sodipodi-0.dtd"
   xmlns:xlink="http://www.w3.org/1999/xlink"
   xmlns="http://www.w3.org/2000/svg"
   xmlns:svg="http://www.w3.org/2000/svg"><defs
     id="defs1"><linearGradient
       id="linearGradient13"
       inkscape:collect="always"><stop
         style="stop-color:#d09756;stop-opacity:1;"
         offset="0"
         id="stop14" /><stop
         style="stop-color:#905d10;stop-opacity:0.74901962;"
         offset="0.12353837"
         id="stop17" /><stop
         style="stop-color:#f1d45a;stop-opacity:0.49803922;"
         offset="0.56734657"
         id="stop16" /></linearGradient><linearGradient
       id="linearGradient10"
       inkscape:collect="always"><stop
         style="stop-color:#15175a;stop-opacity:1;"
         offset="0"
         id="stop11" /><stop
         style="stop-color:#181f31;stop-opacity:0.74901961;"
         offset="0.5"
         id="stop13" /><stop
         style="stop-color:#1e3148;stop-opacity:0;"
         offset="1"
         id="stop12" /></linearGradient><linearGradient
       id="linearGradient8"
       inkscape:collect="always"><stop
         style="stop-color:#15175a;stop-opacity:1;"
         offset="0"
         id="stop8" /><stop
         style="stop-color:#1c2437;stop-opacity:0.49803922;"
         offset="0.52313024"
         id="stop10" /><stop
         style="stop-color:#1e3148;stop-opacity:0;"
         offset="1"
         id="stop9" /></linearGradient><linearGradient
       id="swatch2"
       inkscape:swatch="solid"><stop
         style="stop-color:#000000;stop-opacity:1;"
         offset="0"
         id="stop2" /></linearGradient><linearGradient
       inkscape:collect="always"
       xlink:href="#linearGradient8"
       id="linearGradient9"
       x1="132.64365"
       y1="390.17697"
       x2="137.87401"
       y2="695.37878"
       gradientUnits="userSpaceOnUse" /><linearGradient
       inkscape:collect="always"
       xlink:href="#linearGradient10"
       id="linearGradient12"
       x1="239.70476"
       y1="461.48404"
       x2="235.248"
       y2="722.05872"
       gradientUnits="userSpaceOnUse" /><linearGradient
       inkscape:collect="always"
       xlink:href="#linearGradient13"
       id="linearGradient15"
       x1="190.56668"
       y1="335.80029"
       x2="188.07359"
       y2="566.3725"
       gradientUnits="userSpaceOnUse" /></defs><sodipodi:namedview
     id="namedview1"
     pagecolor="#ffffff"
     bordercolor="#999999"
     borderopacity="1"
     inkscape:showpageshadow="2"
     inkscape:pageopacity="0"
     inkscape:pagecheckerboard="0"
     inkscape:deskcolor="#d1d1d1"
     inkscape:zoom="1.1804348"
     inkscape:cx="376.55617"
     inkscape:cy="355.37753"
     inkscape:window-width="1366"
     inkscape:window-height="745"
     inkscape:window-x="-8"
     inkscape:window-y="-8"
     inkscape:window-maximized="1"
     inkscape:current-layer="g1"><inkscape:page
       x="0"
       y="0"
       width="157.68692"
       height="228.36288"
       id="page2"
       margin="0"
       bleed="0" /></sodipodi:namedview><g
     inkscape:groupmode="layer"
     inkscape:label="Image"
     id="g1"
     transform="translate(-109.28177,-282.04228)"><path
       style="fill:url(#linearGradient12);stroke-width:0.6;stroke-dasharray:none"
       d="m 216.13996,328.26888 50.82873,38.96869 -1.27071,116.48251 -49.98159,26.68508 z"
       id="path5"
       sodipodi:nodetypes="ccccc" /><path
       style="fill:url(#linearGradient15);stroke-width:0.6;stroke-dasharray:none"
       d="m 162.22216,313.95041 50.80745,-31.90814 -2.39609,197.86565 -47.44015,-26.26151 z"
       id="path4"
       sodipodi:nodetypes="ccccc" /><path
       style="fill:url(#linearGradient9);stroke:none;stroke-width:0.6;stroke-dasharray:none"
       d="m 110.47981,344.50269 46.86241,-29.13622 1.92114,162.00001 -49.98159,-28.80294 z"
       id="path3"
       sodipodi:nodetypes="ccccc" /><path
       style="fill:#ffffff;stroke-width:0.320732"
       d="m 172.20322,443.44025 c -0.49003,-0.54136 -0.61557,-1.08681 -0.35931,-1.56101 0.2672,-0.49441 2.30464,-2.39381 3.83912,-3.57904 2.0154,-1.55668 4.25844,-3.03858 6.39491,-4.22491 2.01226,-1.11736 2.55059,-1.50232 2.35901,-1.68693 -0.0515,-0.0497 -0.58337,-0.0859 -1.18188,-0.0804 -1.88631,0.017 -3.70211,0.85369 -8.65727,3.98866 -3.76208,2.38015 -6.01869,3.4098 -8.19218,3.7379 -3.10855,0.46926 -8.13498,0.29422 -9.89636,-0.34464 -2.72729,-0.9892 -6.71018,-3.47181 -6.71018,-4.18258 0,-0.37072 0.0981,-0.37118 1.13202,-0.006 1.30603,0.4622 2.60272,0.74285 4.04745,0.87599 1.51351,0.13947 4.55657,0.002 5.91604,-0.26611 1.66718,-0.32954 4.48847,-1.21738 7.42505,-2.33661 3.97272,-1.51413 6.79011,-2.45981 8.17543,-2.74415 0.8385,-0.17211 1.96694,-0.23485 4.04131,-0.22469 1.58288,0.008 2.93377,0.0474 3.00197,0.088 0.31401,0.18701 7.01721,0.0791 9.34459,-0.15037 4.90068,-0.48327 8.22106,0.10811 14.05126,2.50277 4.79672,1.97017 7.60389,2.68025 11.17035,2.8256 2.52046,0.10269 4.00154,-0.0843 5.89713,-0.74488 0.7136,-0.24865 1.40225,-0.41337 1.5303,-0.36603 1.21749,0.45021 -2.31302,2.9451 -5.79797,4.09721 -5.1742,1.7106 -10.85136,1.28445 -15.10362,-1.13372 -0.70386,-0.40028 -2.29301,-1.33455 -3.53146,-2.07618 -4.09628,-2.453 -6.50568,-3.51411 -7.97931,-3.51411 -0.66589,0 -1.25688,0.20964 -1.25688,0.44585 0,0.073 0.76301,0.54246 1.69557,1.04325 3.27593,1.75923 7.55864,4.66542 9.72282,6.59782 1.4425,1.288 1.48186,1.57816 0.36063,2.65859 -0.46769,0.45068 -0.91692,0.74902 -1.12782,0.74902 -0.40168,0 -1.20021,-0.61398 -3.74523,-2.87971 -4.6405,-4.13125 -9.27569,-7.25363 -10.76808,-7.25363 -0.94203,0 -3.66611,1.53733 -6.56595,3.70548 -0.89004,0.66545 -3.25092,2.67163 -4.92128,4.18187 -2.5072,2.26687 -3.53739,2.71073 -4.31018,1.85701 z m -20.75613,-9.75193 c -1.80633,-0.27242 -4.85754,-1.65442 -7.3148,-3.31313 -2.8519,-1.92506 -4.53521,-3.45929 -4.53521,-4.1335 0,-0.40777 0.50357,-0.29679 2.63044,0.57981 2.81802,1.16143 4.17052,1.40661 12.04475,2.18345 0.27708,-0.52754 9.95025,1.90065 6.90597,0.39375 -2.93697,-1.40118 -5.09315,-3.95556 -7.71178,-9.13602 -1.30589,-2.58344 -1.27717,-3.19806 0.10777,-2.30494 0.66036,0.42588 2.76327,2.20895 6.44121,5.46153 2.33196,2.06227 4.2783,3.61144 5.63604,4.48593 1.54875,0.99751 1.85349,1.14001 3.62506,1.69497 2.61355,0.81872 2.66328,1.12395 0.29773,1.82737 -2.51775,0.74869 -6.83521,1.76982 -8.63142,2.04143 -1.93381,0.29243 -8.07112,0.43419 -9.49572,0.21935 z m 65.27748,-0.30821 c -1.17907,-0.13261 -1.6743,-0.23222 -7.75385,-1.55948 -4.75249,-1.03754 -4.7768,-1.0442 -4.83312,-1.32596 -0.0514,-0.25734 1.06163,-0.77775 2.87119,-1.34238 2.88425,-0.89994 4.10233,-1.76534 9.5794,-6.8058 3.07569,-2.83052 5.01996,-4.48564 5.62121,-4.78524 0.39949,-0.19908 0.48348,-0.19978 0.68481,-0.006 0.23452,0.226 0.12639,0.50803 -1.75216,4.57029 -1.07656,2.32796 -3.32574,4.84123 -5.86908,6.5582 -1.10396,0.74526 -1.15676,0.80394 -0.6519,0.72447 0.30213,-0.0476 1.57346,-0.19148 2.82516,-0.31985 1.25171,-0.12837 3.95278,-0.40516 6.00239,-0.61512 5.77998,-0.59209 7.19925,-0.92757 10.46387,-2.47342 2.99441,-1.41793 3.3911,-0.77703 0.91205,1.47357 -3.44028,3.12326 -7.58053,5.2593 -11.33557,5.84826 -1.51506,0.23764 -4.90953,0.26687 -6.7644,0.0582 z m -63.8649,-6.21264 c -5.55152,-0.82327 -8.45389,-1.46198 -10.32445,-2.27206 -4.21523,-1.82549 -7.41824,-4.34433 -10.41661,-8.1916 -2.26488,-2.90611 -3.62447,-5.69448 -2.77657,-5.69448 0.16621,0 1.04072,0.66397 1.94335,1.47552 2.91905,2.62449 3.0862,2.7321 8.2176,5.29036 3.88416,1.93645 5.35487,2.73692 7.62786,4.15162 0.73377,0.45669 1.50565,0.91837 1.71531,1.02596 l 0.38119,0.1956 -0.3458,-0.4357 c -2.67438,-3.36957 -3.59633,-5.49314 -4.71987,-10.87153 -0.27004,-1.29273 -0.95466,-6.08594 -0.95466,-6.68387 0,-0.44309 0.48749,-0.14461 1.22096,0.74755 1.99089,2.42164 3.31574,4.89896 5.61627,10.50185 1.89143,4.60649 2.91955,6.76176 4.20005,8.80446 0.49017,0.78195 0.89122,1.58165 0.89122,1.77712 0,0.32013 -0.0662,0.35357 -0.66706,0.33712 -0.36688,-0.01 -1.09084,-0.0811 -1.60879,-0.15792 z m 67.56869,-0.4744 c 0,-0.19145 0.46454,-1.02518 1.03228,-1.85273 1.19661,-1.74416 2.02577,-3.33914 2.78716,-5.36136 0.29753,-0.79025 0.93921,-2.49175 1.42595,-3.78111 1.78256,-4.72182 3.14834,-7.29746 5.47885,-10.33221 1.44645,-1.88354 1.63734,-1.40473 0.90695,2.27481 -0.26048,1.31217 -0.61685,3.20248 -0.79194,4.20069 -0.53377,3.0429 -0.95846,4.28238 -2.63207,7.68177 -0.56478,1.14715 -0.99896,2.11263 -0.96485,2.1455 0.0341,0.0329 0.8729,-0.41961 1.86399,-1.00553 0.99109,-0.58591 3.46177,-1.9135 5.4904,-2.95019 4.25093,-2.17236 6.17498,-3.36187 8.38851,-5.18601 2.57606,-2.12288 2.89761,-2.34813 3.08891,-2.16379 0.34881,0.33612 -0.66152,2.47718 -2.33909,4.95685 -1.74053,2.57275 -5.57804,5.9995 -8.80202,7.85987 -0.54878,0.31668 -1.60364,0.80496 -2.34413,1.0851 -2.95932,1.11951 -9.96597,2.77224 -11.76489,2.77512 -0.75577,10e-4 -0.82401,-0.0276 -0.82401,-0.34678 z m -78.83958,-9.99282 c -2.95754,-1.49077 -8.62598,-5.479 -11.29729,-7.94866 -3.62769,-3.35382 -5.94658,-8.04885 -6.19342,-12.53981 l -0.0859,-1.5637 0.37018,0.0512 c 0.26853,0.0372 0.58736,0.38672 1.16117,1.27305 1.34044,2.07046 2.5722,3.54357 6.43984,7.7016 2.69959,2.90229 3.53467,3.86453 4.8565,5.59603 0.50804,0.66547 0.9774,1.2691 1.04301,1.34139 0.0656,0.0723 -0.0519,-0.32316 -0.26122,-0.87879 -1.16467,-3.09189 -1.11124,-7.3725 0.17582,-14.08765 0.46266,-2.41382 0.60779,-2.82387 0.9761,-2.75752 0.56628,0.10203 1.1916,3.28085 2.31523,11.76963 1.09544,8.27594 1.2569,9.15106 1.98959,10.78467 0.49021,1.09298 0.5314,1.81106 0.10838,1.88829 -0.14069,0.0257 -0.85973,-0.25774 -1.59788,-0.6298 z m 90.76807,-0.76519 c 0,-0.28547 0.21348,-1.07691 0.47436,-1.75876 0.5978,-1.56231 0.83218,-2.90583 1.33086,-7.62868 0.64028,-6.06391 1.13686,-9.66813 1.64622,-11.94825 0.20714,-0.92727 0.78217,-1.94669 1.13503,-2.01217 0.30864,-0.0573 0.42653,0.30957 0.9139,2.84401 1.5103,7.85412 1.5684,9.48016 0.4525,12.66131 -0.2527,0.72042 -0.45947,1.33514 -0.45947,1.36604 0,0.19756 0.49849,-0.36081 1.76493,-1.977 0.79362,-1.01277 2.29266,-2.74652 3.33122,-3.85278 3.6178,-3.85365 4.06094,-4.35062 5.27187,-5.91235 0.67479,-0.87025 1.58964,-2.30531 2.05019,-3.21597 0.45743,-0.90448 0.90517,-1.61968 0.99499,-1.58937 0.34661,0.117 0.004,4.06992 -0.53369,6.15014 -1.01527,3.93086 -4.17251,8.12588 -8.84754,11.75572 -4.16415,3.23317 -8.01515,5.63715 -9.03034,5.63715 -0.45922,0 -0.49503,-0.0375 -0.49503,-0.51904 z m -100.3976,-15.24813 c -6.38956,-7.84308 -6.88319,-8.84207 -7.4429,-15.06229 -0.24686,-2.74357 -0.12557,-7.31892 0.21414,-8.07801 0.27127,-0.6061 0.6401,-0.7341 0.87173,-0.30249 0.078,0.14557 0.26507,0.80916 0.41547,1.47463 0.3936,1.74172 2.00267,6.0728 2.98591,8.03708 1.1884,2.37412 2.72633,7.34591 2.74819,8.88422 9.2e-4,0.0931 0.0709,0.0672 0.15454,-0.0576 0.0837,-0.12478 0.15381,-0.66926 0.15584,-1.20996 0.011,-2.85425 0.59131,-5.04748 2.18011,-8.23557 0.89807,-1.80208 3.99377,-7.28421 4.27007,-7.56183 0.34861,-0.35028 0.39955,0.28183 0.19967,2.47759 -0.2799,3.0748 -0.60291,4.68399 -2.17271,10.8243 -1.47947,5.787 -1.69842,6.81842 -1.98256,9.3393 -0.16603,1.473 -0.24462,1.77711 -0.45938,1.77711 -0.14736,0 -1.06947,-0.99473 -2.13812,-2.30646 z m 109.11683,0.98309 c -0.21495,-2.30563 -0.58803,-5.29846 -0.74,-5.93633 -0.0892,-0.37433 -0.44181,-1.49292 -0.78364,-2.48577 -1.37797,-4.00241 -3.2015,-12.34189 -3.08444,-14.10603 0.0395,-0.59458 0.10178,-0.7256 0.34504,-0.7256 0.46989,0 4.93487,7.28088 5.71423,9.31798 0.28146,0.73572 0.85008,3.11205 1.20842,5.05018 l 0.11179,0.60496 0.44403,-1.43681 c 0.24422,-0.79024 1.01936,-2.86607 1.72252,-4.61294 2.54398,-6.31983 3.35844,-8.78143 3.54149,-10.70377 0.11705,-1.22974 0.12084,-1.23908 0.44363,-1.11971 0.74144,0.27417 1.04966,2.23173 1.04265,6.62199 -0.01,5.76032 -0.79637,8.552 -3.57772,12.68805 -1.44499,2.1488 -5.86965,7.86469 -6.08804,7.86469 -0.13883,0 -0.23549,-0.32893 -0.30001,-1.02089 z M 131.19951,386.8095 c -0.24975,-0.3894 -2.21769,-6.09718 -2.90818,-8.4348 -1.18608,-4.01546 -1.31018,-4.75463 -1.19887,-7.1408 0.14549,-3.11854 0.993,-6.20523 2.41983,-8.81321 0.79253,-1.4486 1.15611,-1.85941 1.52495,-1.72303 0.27762,0.10269 0.30572,0.88489 0.0948,2.63904 -0.073,0.60693 -0.072,1.79798 0.003,2.64676 0.32689,3.74217 0.48328,6.31874 0.58484,9.63481 l 0.10887,3.55422 0.37489,-0.98307 c 0.86592,-2.27073 3.08249,-5.36356 5.37984,-7.50663 1.63363,-1.52391 4.273,-3.68542 4.5002,-3.68542 0.16495,0 0.18774,0.17615 0.10276,0.79403 -0.33351,2.4243 -2.14975,5.78915 -6.4271,11.90716 -1.44732,2.07016 -2.50902,3.78791 -3.20167,5.1801 -0.56997,1.14559 -1.08657,2.08289 -1.14802,2.08289 -0.0615,0 -0.15558,-0.0684 -0.20922,-0.15205 z m 111.76809,-2.67672 c -0.99394,-1.81669 -2.31152,-3.78441 -5.29621,-7.90953 -1.13023,-1.56209 -1.79299,-2.57411 -2.92192,-4.46169 -0.78175,-1.30709 -1.32888,-2.61855 -1.51434,-3.62986 -0.10679,-0.5823 -0.28049,-1.21285 -0.38602,-1.40125 -0.29295,-0.52296 0.1957,-0.62949 0.73352,-0.15991 0.23222,0.20278 1.44637,1.25843 2.69808,2.3459 3.95807,3.43875 5.16649,4.80985 6.37315,7.23118 l 0.82908,1.66368 0.01,-3.40298 c 0.017,-5.85635 0.43367,-12.81448 0.80777,-13.48807 0.22457,-0.40436 0.70369,-0.33535 1.06479,0.15333 0.5044,0.68258 1.42075,2.71778 1.81598,4.03325 0.67607,2.25014 1.01955,6.54451 0.72498,9.06383 -0.21251,1.81731 -0.52995,3.06427 -1.73542,6.81677 -0.5077,1.58049 -1.05182,3.35004 -1.20908,3.93233 -0.22829,0.84519 -0.35145,1.06776 -0.61065,1.10357 -0.27086,0.0374 -0.50018,-0.27593 -1.38356,-1.89055 z M 133.07991,368.39637 c -0.21898,-7.53195 0.13263,-10.00456 1.76665,-12.42378 0.31497,-0.46632 1.36015,-1.61352 2.32263,-2.54935 1.3499,-1.31249 1.84472,-1.7015 2.16441,-1.7015 0.71538,0 0.69565,0.53774 -0.0985,2.68738 -1.01404,2.74469 -1.73681,5.01428 -2.23054,7.00422 -0.23573,0.95002 -0.59243,2.32627 -0.79267,3.05834 l -0.36406,1.33102 1.75693,-1.72006 c 0.96629,-0.94602 2.60445,-2.39332 3.64035,-3.21618 1.0359,-0.82287 2.58975,-2.11297 3.453,-2.86687 2.0022,-1.74862 2.40399,-2.04301 2.78827,-2.04301 0.27834,0 0.3043,0.0757 0.23346,0.68135 -0.0839,0.71675 -1.02882,2.75523 -1.75247,3.78033 -0.6376,0.90322 -2.8958,3.3457 -4.11774,4.45377 -0.59146,0.53634 -1.99416,1.82949 -3.11712,2.87364 -3.96947,3.69092 -5.10867,4.69648 -5.32063,4.69648 -0.17283,0 -0.23707,-0.78292 -0.33194,-4.04578 z m 105.92572,0.83899 c -1.37338,-1.27247 -3.37822,-3.02817 -4.4552,-3.90152 -4.76368,-3.863 -6.34603,-5.81131 -7.28231,-8.96651 -0.48417,-1.63169 -0.11522,-1.57021 2.13363,0.35553 0.97787,0.83737 2.61857,2.14753 3.64598,2.91144 1.02742,0.76392 2.74018,2.08495 3.80614,2.93561 1.06596,0.85067 1.93811,1.47454 1.93811,1.38639 0,-0.298 -0.64181,-2.6172 -1.43131,-5.1722 -1.0979,-3.55292 -2.56523,-7.00936 -3.1866,-7.50629 -0.13622,-0.10889 -0.24767,-0.33343 -0.24767,-0.49888 0,-0.26542 0.0691,-0.28845 0.58857,-0.19582 1.00956,0.18008 1.64407,0.56232 2.97531,1.79244 2.07338,1.91585 3.64116,4.36859 4.36745,6.83277 0.21649,0.73451 0.28042,1.77217 0.33537,5.44477 0.0755,5.04884 -0.0346,6.77465 -0.43698,6.84904 -0.15248,0.0282 -1.24796,-0.87464 -2.75049,-2.26677 z m -99.87931,-9.38426 c 1.9e-4,-0.57932 0.74116,-2.97177 1.5423,-4.97979 1.12276,-2.81413 2.67279,-4.66556 5.56526,-6.64743 1.96739,-1.34801 5.31162,-2.75099 5.97377,-2.50614 0.49983,0.18482 0.24758,0.6949 -1.27066,2.56945 -0.84166,1.03919 -2.06915,2.59441 -2.72772,3.45603 -1.73927,2.27547 -5.13895,5.71302 -7.87213,7.95985 -0.70983,0.58352 -1.21098,0.64479 -1.21082,0.14803 z m 94.81007,-1.2646 c -1.21682,-0.88144 -4.88591,-4.39733 -6.38153,-6.11511 -0.61249,-0.70344 -1.81114,-2.16377 -2.66367,-3.24516 -0.85253,-1.0814 -2.06417,-2.5682 -2.69254,-3.30404 -0.62836,-0.73581 -1.14246,-1.39939 -1.14246,-1.47461 0,-0.24627 0.41425,-0.14631 2.29227,0.55312 3.70796,1.38096 5.48208,2.43876 7.55752,4.50605 1.25137,1.24648 1.50043,1.59709 2.48741,3.50158 1.29029,2.48979 2.10098,4.57399 2.14761,5.52134 0.0471,0.95772 -0.34189,0.9715 -1.60461,0.0569 z"
       id="path1"
       sodipodi:nodetypes="sssssssssssssssssssssssssssssssssssssssssssssssssssssssssssssssssssssssssssscssssssssssssssssssssssssscsssscssssssssssssssssssssssssssssssssssscsssssssssssssssscsssssssscssssscscsssssssccsssssssscssssssssssssssssscssssssssssssssssssssssssssssssssssssssssssss" /><path
       style="fill:#ffffff;stroke:none;stroke-width:0.294432;stroke-dasharray:none"
       d="m 170.54215,416.34511 c -2.8e-4,-1.81955 1.56013,-4.07422 3.49025,-5.04403 1.44018,-0.72363 2.11401,-0.85828 4.56536,-0.91175 l 2.25559,-0.0492 0.069,-0.2912 c 0.0379,-0.16015 0.38823,-2.45067 0.77844,-5.09001 0.39021,-2.63934 0.77293,-4.95426 0.85051,-5.14425 0.43716,-1.07062 1.90719,-2.02637 3.11675,-2.02637 h 0.55325 v -13.54209 -7.54209 l -0.51087,-0.29256 c -0.68758,-0.39379 -1.22628,-1.06462 -1.39203,-1.73348 -0.0841,-0.33938 -0.13666,-2.22011 -0.13666,-4.891 v -4.33959 c 0,0 -5.84675,-2.00005 -8.84153,-1.71307 -1.64385,0.15751 -2.90852,1.09301 -4.54389,1.84075 -6.78785,3.1036 -7.8964,3.30482 -7.8964,3.30482 0,0 0.51948,1.86385 1.00607,3.20514 1.74146,4.80024 3.55598,10.64389 4.36113,14.04483 l 0.29268,1.23632 0.70437,0.0322 0.70437,0.0324 -0.036,0.38611 c -0.12546,1.34516 -0.84228,2.673 -1.96977,3.64874 -0.91769,0.79419 -2.44785,1.48019 -3.66675,1.64387 -1.25106,0.168 -4.50087,0.13675 -5.54506,-0.0533 -2.8476,-0.51835 -5.03208,-2.58348 -5.37077,-5.07731 l -0.0819,-0.60325 h 0.82046 0.82046 l 0.29396,-1.24107 c 0.8183,-3.45479 2.64852,-9.33402 4.46828,-14.35346 0.56394,-1.55555 1.02535,-2.85241 1.02535,-2.88194 0,-0.30384 -1.57555,1.13022 -5.11363,-2.06915 -2.20373,-1.99278 -2.52642,-4.96836 -2.52642,-4.96836 0,0 5.07355,5.16913 9.02232,5.16446 3.65469,0.14784 5.90834,-2.46383 7.86159,-3.83147 1.30425,-0.91321 3.2847,-1.75863 5.11655,-2.02004 2.91072,-0.4154 7.79694,1.65676 8.79318,0.79469 0.014,-0.0121 -0.0595,-0.29509 -0.16334,-0.62872 -0.35581,-1.14264 0.0838,-2.70055 0.97876,-3.63169 0.59479,-0.61885 1.45846,-0.78391 2.50947,-0.87406 -0.0518,-1.17134 -1.4914,-2.3938 -1.12513,-3.53307 0.4849,-1.49821 1.60879,-5.75029 2.74482,-6.84106 1.02612,1.12393 2.06382,5.46183 2.55302,6.87761 0.42434,1.41475 -1.24495,2.88923 -1.41041,3.45789 0,0 1.96675,0.12655 2.49828,0.77533 0.96254,1.1749 0.78701,3.25123 0.24895,4.4221 -0.0674,0.14668 5.26942,-1.16008 7.86326,-0.73323 4.81952,0.79309 8.13786,5.54874 13.21561,5.94143 2.89474,0.22387 8.77408,-5.7089 8.76083,-5.6026 -0.93326,7.49303 -7.19345,7.18581 -7.19345,7.45469 0,0.34871 3.73152,9.93901 5.5347,17.63223 l 0.1616,0.68949 h 0.68369 0.68368 l -0.003,0.41369 c -0.009,1.22533 -0.72962,2.55688 -1.96096,3.62462 -0.92297,0.80032 -1.49476,1.11378 -2.74629,1.50547 -1.00064,0.31318 -4.97221,0.40554 -6.37977,0.14838 -2.60935,-0.47672 -4.62595,-2.12424 -5.2865,-4.31897 -0.10715,-0.35603 -0.19482,-0.80828 -0.19482,-1.00499 v -0.35767 l 0.78107,-0.0329 0.78108,-0.0329 0.54563,-2.09603 c 2.16626,-8.32146 4.72872,-14.52522 5.09592,-16.06897 0,0 -3.29548,-1.44453 -5.44529,-2.17284 -1.64881,-0.45891 -4.02884,-2.46757 -6.34249,-2.77468 -2.69537,-0.35777 -5.28032,0.96723 -8.06872,1.18067 l -0.86044,0.0658 v 4.6599 4.65989 l -0.35474,0.59176 c -0.24861,0.41472 -0.53255,0.69078 -0.94912,0.92271 l -0.59438,0.33096 -0.007,7.58432 -0.007,13.58432 h 0.74446 c 0.90758,0 2.14935,0.48882 2.63151,1.03589 0.6964,0.79015 0.7878,1.16076 1.52674,6.18991 0.39226,2.66967 0.74136,4.96566 0.77579,5.10217 0.0611,0.24227 0.10326,0.2482 1.76068,0.2482 2.82455,0 4.47758,0.51076 6.06848,1.87501 1.30384,1.11807 2.26166,2.98355 2.1463,4.17946 l -0.0385,0.39911 c 0,0 -11.8337,3.30137 -17.75056,3.31069 -5.91686,0.009 -17.75058,-3.25479 -17.75058,-3.25479 z m -2.54946,-29.0284 -6.24617,-14.83403 -6.20496,14.75495 c 0,0 10.28678,0.12238 12.45113,0.079 z m 46.314,-14.77706 -6.28644,14.79171 c 0,0 8.31427,0.0441 12.471,0.0441 z"
       id="path2"
       sodipodi:nodetypes="ssscsssscccssscascsscccssssscccssssccsassacscscasasssscccsssssscccscsascccsscccsssssssczcsccccccccc" /></g></svg>
