<?xml version="1.0" encoding="UTF-8" standalone="no"?>
<!-- Created with Inkscape (http://www.inkscape.org/) -->

<svg
   version="1.1"
   id="svg1"
   width="51.845825"
   height="48.543365"
   viewBox="0 0 51.845826 48.543366"
   sodipodi:docname="dummmm.svg"
   xml:space="preserve"
   inkscape:version="1.4.2 (f4327f4, 2025-05-13)"
   inkscape:export-filename="C:\My Web Sites\Abogado\fexlaw.com\wp-content\uploads\elementor\css\imagenescss\logo_2.png"
   inkscape:export-xdpi="949.60767"
   inkscape:export-ydpi="949.60767"
   xmlns:inkscape="http://www.inkscape.org/namespaces/inkscape"
   xmlns:sodipodi="http://sodipodi.sourceforge.net/DTD/sodipodi-0.dtd"
   xmlns="http://www.w3.org/2000/svg"
   xmlns:svg="http://www.w3.org/2000/svg"><defs
     id="defs1"><linearGradient
       id="swatch28"
       inkscape:swatch="solid"><stop
         style="stop-color:#15175a;stop-opacity:1;"
         offset="0"
         id="stop28" /></linearGradient><linearGradient
       id="swatch27"
       inkscape:swatch="solid"><stop
         style="stop-color:#000000;stop-opacity:1;"
         offset="0"
         id="stop27" /></linearGradient><linearGradient
       id="swatch26"
       inkscape:swatch="solid"><stop
         style="stop-color:#000000;stop-opacity:1;"
         offset="0"
         id="stop26" /></linearGradient><linearGradient
       id="swatch25"
       inkscape:swatch="solid"><stop
         style="stop-color:#000000;stop-opacity:1;"
         offset="0"
         id="stop25" /></linearGradient><linearGradient
       id="swatch24"
       inkscape:swatch="solid"><stop
         style="stop-color:#000000;stop-opacity:1;"
         offset="0"
         id="stop24" /></linearGradient><linearGradient
       id="swatch23"
       inkscape:swatch="solid"><stop
         style="stop-color:#d50000;stop-opacity:1;"
         offset="0"
         id="stop23" /></linearGradient><linearGradient
       id="swatch22"
       inkscape:swatch="solid"><stop
         style="stop-color:#ffffff;stop-opacity:1;"
         offset="0"
         id="stop22" /></linearGradient><linearGradient
       id="swatch2"
       inkscape:swatch="solid"><stop
         style="stop-color:#000000;stop-opacity:1;"
         offset="0"
         id="stop2" /></linearGradient></defs><sodipodi:namedview
     id="namedview1"
     pagecolor="#7c848c"
     bordercolor="#999999"
     borderopacity="1"
     inkscape:showpageshadow="2"
     inkscape:pageopacity="0"
     inkscape:pagecheckerboard="0"
     inkscape:deskcolor="#beffff"
     inkscape:zoom="3.8228116"
     inkscape:cx="63.958161"
     inkscape:cy="70.236262"
     inkscape:window-width="1366"
     inkscape:window-height="745"
     inkscape:window-x="-8"
     inkscape:window-y="-8"
     inkscape:window-maximized="1"
     inkscape:current-layer="g1"><inkscape:page
       x="0"
       y="0"
       width="51.845825"
       height="48.543365"
       id="page2"
       margin="0"
       bleed="0" /></sodipodi:namedview><g
     inkscape:groupmode="layer"
     inkscape:label="Image"
     id="g1"
     transform="translate(-183.41861,-254.92729)"><g
       id="g27"
       transform="matrix(0.06988604,0,0,0.06518883,194.86704,266.3489)"
       style="fill:#15175a;fill-opacity:1;stroke:none;stroke-width:9.92643;stroke-dasharray:none"
       inkscape:export-filename="C:\My Web Sites\Abogado\fexlaw.com\imagenes\photo1.svg"
       inkscape:export-xdpi="949.60767"
       inkscape:export-ydpi="949.60767"><ellipse
         style="font-variation-settings:'wght' 400;fill:#15175a;fill-opacity:1;stroke:none;stroke-width:9.92643;stroke-dasharray:none"
         id="path21"
         cx="201.73055"
         cy="-25.036953"
         rx="51.253452"
         ry="50.693096" /><path
         style="font-variation-settings:'wght' 400;fill:#15175a;fill-opacity:1;stroke:none;stroke-width:9.92643;stroke-dasharray:none;stroke-opacity:1"
         d="m -69.02964,40.79941 230.10311,0.73988 c 0,0 18.06126,29.69824 50.40334,27.026474 31.008,-2.561559 41.37658,-26.411964 41.37658,-26.411964 0,0 225.46782,-0.540719 228.85107,0.448789 3.38326,0.989507 -143.64567,8.597453 -201.63692,73.132641 -57.99126,64.53519 -73.12143,297.22451 -73.12143,297.22451 0,0 -11.88968,-231.96061 -69.98226,-297.30537 C 78.871274,50.30961 -69.02964,40.79941 -69.02964,40.79941 Z"
         id="path23"
         sodipodi:nodetypes="ccscszczc" /><path
         style="font-variation-settings:'wght' 400;fill:#15175a;fill-opacity:1;stroke:none;stroke-width:9.92643;stroke-dasharray:none"
         d="m 101.95732,347.75162 c 0,0 63.88811,91.41111 109.08201,90.5093 45.1939,-0.90181 96.26423,-86.58548 96.26423,-86.58548 0,0 -45.93003,115.42173 -98.09534,116.14488 -52.16531,0.72315 -107.2509,-120.0687 -107.2509,-120.0687 z"
         id="path24"
         sodipodi:nodetypes="czczc" /><path
         style="font-variation-settings:'wght' 400;fill:#15175a;fill-opacity:1;stroke:none;stroke-width:9.92643;stroke-dasharray:none"
         d="m -163.81565,164.37874 c 0,0 37.09874,-344.15866 376.16292,-339.54067 321.94653,4.38485 365.69942,340.58702 365.69942,340.58702 h -51.27116 c 0,0 -29.02363,-290.41815 -313.90508,-291.83903 -284.881448,-1.42088 -323.84541,291.83903 -323.84541,291.83903 z"
         id="path25"
         sodipodi:nodetypes="cscczcc" /><path
         style="font-variation-settings:'wght' 400;fill:#15175a;fill-opacity:1;stroke:none;stroke-width:9.92643;stroke-dasharray:none"
         d="m -9.47899,431.19806 c 0,0 94.173026,87.31958 213.97863,86.3239 132.61419,-1.10213 221.30309,-86.84708 221.30309,-86.84708 l 68.53594,1.04635 c 0,0 -107.74316,142.69357 -292.4549,137.59506 C 17.172026,564.21778 -80.10763,430.67488 -80.10763,430.67488 Z"
         id="path26"
         sodipodi:nodetypes="cscczcc" /><path
         d="m 440.453,77.822447 c -2.82638,4.107432 -38.79448,162.877623 -46.72159,209.286703 l -2.83813,16.68667 h -7.94659 -7.94663 l 0.79435,8.10715 c 3.28101,33.50026 24.42699,61.2264 52.01264,68.1895 10.11543,2.55301 41.59604,2.96741 53.71548,0.70795 11.80788,-2.19874 26.64289,-11.39666 35.53285,-22.06523 10.92237,-13.10733 17.85656,-30.94054 19.07193,-49.01042 l 0.35939,-5.19495 -6.83035,-0.44577 -6.81143,-0.41899 -2.83809,-16.60795 c -7.79957,-45.68575 -46.63668,-199.912659 -48.1878,-207.047172 -1.55112,-7.134512 -7.30392,-14.95095 -14.25899,-15.535274 -7.17225,-0.602572 -14.28065,9.24035 -17.10704,13.347783 z m 16.37848,25.891623 60.50792,199.26892 c -20.96746,0.58299 -120.6186,-1.04915 -120.6186,-1.04915 z"
         style="fill:#15175a;fill-opacity:1;stroke:none;stroke-width:9.92643;stroke-dasharray:none"
         id="path1"
         sodipodi:nodetypes="zccccccccccccczazcccc" /><path
         d="m -55.190272,75.520148 c -2.82638,4.10743 -38.79448,162.877622 -46.721588,209.286702 l -2.83813,16.68667 h -7.94659 -7.94663 l 0.79435,8.10715 c 3.28101,33.50026 24.426988,61.2264 52.012638,68.1895 10.11543,2.55301 41.59604,2.96741 53.71548,0.70795 11.8078797,-2.19874 26.64289,-11.39666 35.53285,-22.06523 10.92237,-13.10733 17.85656,-30.94054 19.07193,-49.01042 l 0.35939,-5.19495 -6.83035,-0.44577 -6.81143,-0.41899 -2.83809,-16.60795 c -7.79957,-45.68575 -46.63668,-199.912662 -48.1878,-207.047172 -1.55112,-7.13451 -7.30392,-14.95095 -14.25899,-15.53528 -7.17225,-0.60257 -14.28065,9.24035 -17.10704,13.34779 z m 16.37848,25.891622 60.50792,199.26892 c -20.96746032,0.58299 -120.6186,-1.04915 -120.6186,-1.04915 z"
         style="fill:#15175a;fill-opacity:1;stroke:none;stroke-width:9.92643;stroke-dasharray:none"
         id="path1-6"
         sodipodi:nodetypes="zccccccccccccczazcccc" /></g></g></svg>
