<?xml version="1.0" encoding="UTF-8" standalone="no"?>
<!-- Created with Inkscape (http://www.inkscape.org/) -->

<svg
   version="1.1"
   id="svg1"
   width="19.186031"
   height="15.690289"
   viewBox="0 0 19.186032 15.690289"
   sodipodi:docname="dummmm.svg"
   xml:space="preserve"
   inkscape:version="1.4.2 (f4327f4, 2025-05-13)"
   inkscape:export-filename="C:\My Web Sites\Abogado\fexlaw.com\wp-content\uploads\elementor\css\imagenescss\logo_2.png"
   inkscape:export-xdpi="949.60767"
   inkscape:export-ydpi="949.60767"
   xmlns:inkscape="http://www.inkscape.org/namespaces/inkscape"
   xmlns:sodipodi="http://sodipodi.sourceforge.net/DTD/sodipodi-0.dtd"
   xmlns="http://www.w3.org/2000/svg"
   xmlns:svg="http://www.w3.org/2000/svg"><defs
     id="defs1"><linearGradient
       id="swatch29"
       inkscape:swatch="solid"><stop
         style="stop-color:#000000;stop-opacity:1;"
         offset="0"
         id="stop29" /></linearGradient><linearGradient
       id="swatch28"
       inkscape:swatch="solid"><stop
         style="stop-color:#15175a;stop-opacity:1;"
         offset="0"
         id="stop28" /></linearGradient><linearGradient
       id="swatch27"
       inkscape:swatch="solid"><stop
         style="stop-color:#000000;stop-opacity:1;"
         offset="0"
         id="stop27" /></linearGradient><linearGradient
       id="swatch26"
       inkscape:swatch="solid"><stop
         style="stop-color:#000000;stop-opacity:1;"
         offset="0"
         id="stop26" /></linearGradient><linearGradient
       id="swatch25"
       inkscape:swatch="solid"><stop
         style="stop-color:#000000;stop-opacity:1;"
         offset="0"
         id="stop25" /></linearGradient><linearGradient
       id="swatch24"
       inkscape:swatch="solid"><stop
         style="stop-color:#000000;stop-opacity:1;"
         offset="0"
         id="stop24" /></linearGradient><linearGradient
       id="swatch23"
       inkscape:swatch="solid"><stop
         style="stop-color:#d50000;stop-opacity:1;"
         offset="0"
         id="stop23" /></linearGradient><linearGradient
       id="swatch22"
       inkscape:swatch="solid"><stop
         style="stop-color:#ffffff;stop-opacity:1;"
         offset="0"
         id="stop22" /></linearGradient><linearGradient
       id="swatch2"
       inkscape:swatch="solid"><stop
         style="stop-color:#000000;stop-opacity:1;"
         offset="0"
         id="stop2" /></linearGradient></defs><sodipodi:namedview
     id="namedview1"
     pagecolor="#7c848c"
     bordercolor="#999999"
     borderopacity="1"
     inkscape:showpageshadow="2"
     inkscape:pageopacity="0"
     inkscape:pagecheckerboard="0"
     inkscape:deskcolor="#beffff"
     inkscape:zoom="3.8228116"
     inkscape:cx="63.958161"
     inkscape:cy="70.236262"
     inkscape:window-width="1366"
     inkscape:window-height="745"
     inkscape:window-x="-8"
     inkscape:window-y="-8"
     inkscape:window-maximized="1"
     inkscape:current-layer="g1"><inkscape:page
       x="0"
       y="0"
       width="19.186031"
       height="15.690289"
       id="page2"
       margin="0"
       bleed="0" /></sodipodi:namedview><g
     inkscape:groupmode="layer"
     inkscape:label="Image"
     id="g1"
     transform="translate(-168.16534,-271.14451)"><path
       style="fill:#15175a;fill-opacity:1;stroke:none"
       d="m 175.23165,285.42209 -1.61641,0.5266 1.34567,-2.67974 c 0,0 0.33985,1.13624 0.79467,1.44492 0.2948,0.20007 1.06055,0.1328 1.06055,0.1328 l -0.94146,1.98805 z m 3.50798,-0.40741 c 0,0 0.99393,-0.0904 1.33009,-0.41015 0.34325,-0.32652 0.48608,-1.33554 0.48608,-1.33554 l 1.34566,2.67974 c 0,0 -1.08491,-0.33539 -1.61641,-0.5266 0,0 -0.40521,0.95213 -0.64302,1.41267 0,0 -0.41406,-0.72334 -0.9024,-1.82012 z m -2.85676,-0.74725 c -0.17464,-0.15939 -0.31258,-0.47546 -0.31258,-0.71626 0,-0.44922 -0.21344,-0.5945 -1.13987,-0.77586 -0.61423,-0.12024 -0.78153,-0.59937 -0.40627,-1.16356 0.38425,-0.57772 0.37366,-0.96843 -0.0401,-1.4792 -0.31942,-0.3943 -0.32308,-0.43256 -0.0745,-0.77874 0.15229,-0.21214 0.40842,-0.36407 0.61372,-0.36407 0.50727,0 1.04706,-0.39226 1.04706,-0.76088 0,-0.44573 0.42748,-0.95081 0.80473,-0.95081 0.17498,0 0.49696,0.12838 0.71552,0.28528 0.50173,0.36019 0.8339,0.36019 1.33562,0 0.21856,-0.1569 0.54054,-0.28528 0.71552,-0.28528 0.37725,0 0.80473,0.50508 0.80473,0.95081 0,0.36862 0.5398,0.76088 1.04706,0.76088 0.2053,0 0.46143,0.15193 0.61373,0.36407 0.24853,0.34618 0.24487,0.38444 -0.0745,0.77874 -0.41377,0.51077 -0.42436,0.90148 -0.0401,1.4792 0.37525,0.56419 0.20796,1.04332 -0.40628,1.16356 -0.92642,0.18136 -1.13987,0.32664 -1.13987,0.77586 0,0.44738 -0.46396,1.00154 -0.83851,1.00154 -0.11735,0 -0.39218,-0.12837 -0.61074,-0.28528 -0.21856,-0.1569 -0.55103,-0.28528 -0.73881,-0.28528 -0.18778,0 -0.52024,0.12838 -0.7388,0.28528 -0.21856,0.15691 -0.49339,0.28528 -0.61074,0.28528 -0.11735,0 -0.35402,-0.12837 -0.52594,-0.28528 z m 2.50758,-1.28316 c 0.30467,-0.0772 0.79244,-0.36502 1.08393,-0.6395 0.45219,-0.4258 0.53923,-0.61968 0.59299,-1.32082 0.0526,-0.68598 0.002,-0.90426 -0.3056,-1.32101 -0.20273,-0.27459 -0.61336,-0.61147 -0.9125,-0.74864 -1.09372,-0.50152 -2.40567,-0.1841 -3.09433,0.74864 -0.3077,0.41675 -0.35819,0.63503 -0.3056,1.32101 0.0538,0.7022 0.14056,0.8948 0.596,1.32366 0.4604,0.43353 1.07673,0.72194 1.63487,0.76504 0.086,0.007 0.40556,-0.0511 0.71024,-0.12838 z m -1.3354,-0.41467 c -1.39909,-0.56083 -1.63394,-2.35734 -0.40669,-3.11107 1.48247,-0.91048 3.44371,0.30421 2.97778,1.84428 -0.29762,0.98377 -1.63425,1.64233 -2.57109,1.26679 z m 1.24936,-1.58201 c 0.51492,-0.47712 0.71688,-0.75963 0.6117,-0.85563 -0.10519,-0.096 -0.35852,0.045 -0.76726,0.42703 -0.6631,0.61977 -0.8741,0.68393 -1.17195,0.35639 -0.23027,-0.25322 -0.46887,-0.27981 -0.46887,-0.0522 0,0.15465 0.76877,0.83624 0.94362,0.8366 0.0462,1e-4 0.42995,-0.32037 0.85276,-0.71214 z m -2.15148,-5.36494 0.49634,-1.63006 -1.45268,-1.16153 1.92063,-0.11751 0.64113,-1.56904 0.64114,1.56904 1.92063,0.11751 -1.45268,1.16153 0.49633,1.63006 -1.60542,-0.93643 z"
       id="path29"
       sodipodi:nodetypes="cccaccccaccccccsssscssssssssscsssssssscccsscsscsccsssscsssssccccccccccccc" /><path
       d="m 168.92336,279.18515 0.39341,-1.25468 -1.15143,-0.89405 1.52234,-0.0905 0.50817,-1.20771 0.50818,1.20771 1.52234,0.0905 -1.15143,0.89405 0.3934,1.25468 -1.27249,-0.72078 z"
       style="fill:#15175a;fill-opacity:1;stroke:none;stroke-width:0.781085"
       id="path1"
       sodipodi:nodetypes="ccccccccccc" /><path
       d="m 184.04836,279.43515 0.39341,-1.25468 -1.15143,-0.89405 1.52234,-0.0905 0.50817,-1.20771 0.50818,1.20771 1.52234,0.0905 -1.15143,0.89405 0.3934,1.25468 -1.27249,-0.72078 z"
       style="fill:#15175a;fill-opacity:1;stroke:none;stroke-width:0.781085"
       id="path1-2" /></g></svg>
