<?xml version="1.0" encoding="UTF-8" standalone="no"?>
<!-- Created with Inkscape (http://www.inkscape.org/) -->

<svg
   version="1.1"
   id="svg1"
   width="38.776749"
   height="41.981468"
   viewBox="0 0 38.776749 41.981469"
   sodipodi:docname="dummmm.svg"
   xml:space="preserve"
   inkscape:version="1.4.2 (f4327f4, 2025-05-13)"
   inkscape:export-filename="C:\My Web Sites\Abogado\fexlaw.com\wp-content\uploads\elementor\css\imagenescss\logo_2.png"
   inkscape:export-xdpi="949.60767"
   inkscape:export-ydpi="949.60767"
   xmlns:inkscape="http://www.inkscape.org/namespaces/inkscape"
   xmlns:sodipodi="http://sodipodi.sourceforge.net/DTD/sodipodi-0.dtd"
   xmlns="http://www.w3.org/2000/svg"
   xmlns:svg="http://www.w3.org/2000/svg"><defs
     id="defs1"><linearGradient
       id="swatch29"
       inkscape:swatch="solid"><stop
         style="stop-color:#000000;stop-opacity:1;"
         offset="0"
         id="stop29" /></linearGradient><linearGradient
       id="swatch28"
       inkscape:swatch="solid"><stop
         style="stop-color:#15175a;stop-opacity:1;"
         offset="0"
         id="stop28" /></linearGradient><linearGradient
       id="swatch27"
       inkscape:swatch="solid"><stop
         style="stop-color:#000000;stop-opacity:1;"
         offset="0"
         id="stop27" /></linearGradient><linearGradient
       id="swatch26"
       inkscape:swatch="solid"><stop
         style="stop-color:#000000;stop-opacity:1;"
         offset="0"
         id="stop26" /></linearGradient><linearGradient
       id="swatch25"
       inkscape:swatch="solid"><stop
         style="stop-color:#000000;stop-opacity:1;"
         offset="0"
         id="stop25" /></linearGradient><linearGradient
       id="swatch24"
       inkscape:swatch="solid"><stop
         style="stop-color:#000000;stop-opacity:1;"
         offset="0"
         id="stop24" /></linearGradient><linearGradient
       id="swatch23"
       inkscape:swatch="solid"><stop
         style="stop-color:#d50000;stop-opacity:1;"
         offset="0"
         id="stop23" /></linearGradient><linearGradient
       id="swatch22"
       inkscape:swatch="solid"><stop
         style="stop-color:#ffffff;stop-opacity:1;"
         offset="0"
         id="stop22" /></linearGradient><linearGradient
       id="swatch2"
       inkscape:swatch="solid"><stop
         style="stop-color:#000000;stop-opacity:1;"
         offset="0"
         id="stop2" /></linearGradient></defs><sodipodi:namedview
     id="namedview1"
     pagecolor="#7c848c"
     bordercolor="#999999"
     borderopacity="1"
     inkscape:showpageshadow="2"
     inkscape:pageopacity="0"
     inkscape:pagecheckerboard="0"
     inkscape:deskcolor="#beffff"
     inkscape:zoom="3.8228116"
     inkscape:cx="63.958161"
     inkscape:cy="70.236262"
     inkscape:window-width="1366"
     inkscape:window-height="745"
     inkscape:window-x="-8"
     inkscape:window-y="-8"
     inkscape:window-maximized="1"
     inkscape:current-layer="g1"><inkscape:page
       x="0"
       y="0"
       width="38.776749"
       height="41.981468"
       id="page2"
       margin="0"
       bleed="0" /></sodipodi:namedview><g
     inkscape:groupmode="layer"
     inkscape:label="Image"
     id="g1"
     transform="translate(-171.35253,-241.43679)"><path
       style="fill:#15175a;fill-opacity:1;stroke:none;stroke-width:0.2;stroke-dasharray:none"
       d="m 172.78091,276.5892 c -0.67741,-0.26898 -1.14894,-0.76571 -1.34502,-1.41687 -0.14155,-0.47009 -0.0914,-4.37254 0.0646,-5.02281 0.25527,-1.06431 0.60247,-1.84799 1.37475,-3.10294 l 0.46572,-0.75679 -0.18136,-0.22183 c -0.0998,-0.12201 -0.25852,-0.38083 -0.35282,-0.57516 -0.15275,-0.31478 -0.17145,-0.42282 -0.17145,-0.99046 0,-0.59721 0.0128,-0.66231 0.20492,-1.03884 0.41133,-0.8063 1.19965,-1.31294 2.1282,-1.36774 l 0.45178,-0.0267 0.27971,-0.52328 c 0.85427,-1.59811 1.26893,-3.5041 1.12036,-5.1497 l -0.046,-0.5095 -0.39786,-0.0782 c -0.83942,-0.1649 -1.43329,-0.60206 -1.80545,-1.32904 -0.50668,-0.98974 -0.29687,-2.07816 0.54761,-2.84075 0.17358,-0.15675 0.3067,-0.29076 0.29582,-0.29779 -1.41434,-0.91431 -2.21054,-1.92946 -2.63852,-3.36408 -0.12807,-0.4293 -0.13701,-0.60261 -0.15611,-3.02844 l -0.0203,-2.57308 0.14332,-0.27163 c 0.0837,-0.1587 0.25638,-0.34748 0.41525,-0.45407 l 0.27193,-0.18244 h 1.55699 1.55698 l 0.26892,0.18246 c 0.51455,0.34914 0.52159,0.37821 0.55714,2.2998 l 0.0314,1.69521 h 1.16017 1.16016 l 0.0314,-1.69521 0.0314,-1.6952 0.21395,-0.28692 c 0.36286,-0.48661 0.52565,-0.53041 1.97141,-0.53041 0.97414,0 1.28573,0.0199 1.46875,0.0937 0.29725,0.11991 0.49397,0.29857 0.66341,0.60254 0.12692,0.22767 0.13596,0.33644 0.15106,1.81629 0.009,0.86577 0.0159,1.60818 0.0157,1.6498 -2.8e-4,0.0578 0.27255,0.0757 1.15621,0.0757 h 1.15658 l 0.0193,-1.71034 c 0.0186,-1.65092 0.0242,-1.71794 0.16009,-1.92896 0.0775,-0.12024 0.25847,-0.29733 0.40226,-0.39353 l 0.26144,-0.17491 h 1.57803 1.57804 l 0.23275,0.17139 c 0.12802,0.0943 0.30925,0.28304 0.40275,0.4195 l 0.16999,0.2481 -0.003,2.51684 -0.003,2.51684 -0.16302,0.57939 c -0.17602,0.62559 -0.48346,1.26571 -0.88484,1.84234 -0.29599,0.42523 -1.01118,1.11026 -1.4377,1.37708 -0.16456,0.10293 -0.29919,0.19796 -0.29919,0.21116 0,0.0132 0.13597,0.15187 0.30216,0.30814 0.17369,0.16334 0.39365,0.46371 0.51737,0.70651 0.20376,0.3999 0.21521,0.45625 0.21521,1.05902 0,0.58599 -0.0154,0.66796 -0.19356,1.03017 -0.34552,0.70246 -1.13168,1.27719 -1.87592,1.37142 -0.17246,0.0218 -0.33429,0.0696 -0.35963,0.10606 -0.0253,0.0365 -0.046,0.51591 -0.0459,1.06533 2e-4,1.25778 0.12047,2.06879 0.4744,3.19911 0.10115,0.32304 0.14373,0.56814 0.1182,0.68037 -0.0814,0.35774 -0.57876,0.5382 -0.89465,0.32459 -0.20153,-0.13627 -0.29645,-0.34499 -0.51026,-1.12205 -0.30331,-1.10232 -0.39672,-1.82756 -0.3989,-3.09715 l -0.002,-1.13518 h -3.95923 -3.95923 l 7e-4,1.13518 c 0.001,2.34574 -0.77661,4.13373 -0.9914,4.58256 -0.12495,0.26109 -0.22718,0.48449 -0.22718,0.49645 0,0.012 1.97641,0.0217 4.39202,0.0217 4.85778,0 4.62283,-0.0191 4.76162,0.38693 0.048,0.14038 0.047,0.25028 -0.004,0.39041 -0.14059,0.38936 0.11067,0.37295 -5.71343,0.37332 -3.2366,2e-4 -5.37168,0.0232 -5.50606,0.0593 -0.30679,0.0824 -0.68461,0.40089 -0.82197,0.69286 -0.22343,0.47491 -0.13052,0.99232 0.24905,1.38705 0.37513,0.39011 0.14754,0.37003 4.5694,0.40326 l 4.02784,0.0303 0.17241,0.16649 c 0.24506,0.23664 0.2432,0.60491 -0.004,0.81027 l -0.17651,0.14657 -4.18757,-0.0168 -4.18758,-0.0168 -0.42274,0.68661 c -1.25199,2.03349 -1.41218,2.65305 -1.41278,5.46413 -3.6e-4,1.69522 0.003,1.73662 0.14544,1.99792 0.0909,0.16635 0.2385,0.31776 0.39195,0.40206 l 0.24614,0.13522 5.12979,10e-4 c 4.50635,8.7e-4 5.1526,0.0124 5.3175,0.0947 0.3476,0.17353 0.40867,0.60523 0.12444,0.87963 l -0.18331,0.17697 h -2.76414 c 0,0 -7.8199,-0.005 -8.16847,-0.14381 z m 14.9052,-22.00818 c 0.47971,-0.21442 0.7839,-0.67136 0.7839,-1.17756 0,-0.5249 -0.27142,-0.8897 -0.9059,-1.21757 -0.31361,-0.16206 -0.36618,-0.17208 -0.55563,-0.10595 -0.15696,0.0548 -1.49354,0.073 -5.34953,0.073 h -5.14029 l -0.27891,0.13622 c -0.81177,0.39647 -0.98409,1.39773 -0.3465,2.01328 0.14037,0.13551 0.35369,0.27666 0.47406,0.31366 0.153,0.047 1.85087,0.0688 5.6434,0.0721 5.15385,0.005 5.43707,-7.5e-4 5.6754,-0.10727 z m -0.95405,-3.74571 c 1.63195,-0.4396 2.87933,-1.64538 3.31629,-3.20569 0.11909,-0.42523 0.13495,-0.68052 0.16182,-2.60475 0.0164,-1.17332 0.0118,-2.20239 -0.0101,-2.28683 l -0.0399,-0.15352 -1.1743,0.0165 -1.17431,0.0165 -0.0314,1.66493 c -0.0298,1.58445 -0.0382,1.67737 -0.1737,1.92217 -0.0783,0.14149 -0.25956,0.3322 -0.40283,0.42381 l -0.26049,0.16656 -1.38445,0.0186 c -1.58124,0.0213 -1.79459,-0.0131 -2.12774,-0.34259 -0.38552,-0.38133 -0.41688,-0.55577 -0.41688,-2.31879 v -1.56801 l -1.01906,0.0166 -1.01906,0.0166 -0.0314,1.66989 -0.0314,1.66988 -0.18813,0.29306 c -0.12346,0.19232 -0.28315,0.34151 -0.46452,0.43399 -0.26554,0.13539 -0.3315,0.14092 -1.68004,0.14092 -1.26569,0 -1.4271,-0.0115 -1.64225,-0.11752 -0.31171,-0.15352 -0.61094,-0.48751 -0.6933,-0.77384 -0.038,-0.13217 -0.0659,-0.88666 -0.0661,-1.78767 l -3.5e-4,-1.55899 h -1.19152 -1.19152 v 2.17423 c 0,1.62849 0.0224,2.28718 0.0892,2.62426 0.37486,1.89149 2.00843,3.33363 4.04977,3.57522 0.12072,0.0143 2.0397,0.0215 4.26439,0.016 3.94394,-0.01 4.05709,-0.0133 4.53322,-0.14155 z"
       id="path28"
       sodipodi:nodetypes="cscsccsscccssccsscscccscccsccccccsscscsscccsccccscccsssssssscccscssccccssssscscssccsccccsscscscscccccsssscsscccccsscccccsscccscccccsssccscccscsccc" /><path
       style="fill:#15175a;fill-opacity:1"
       d="m 195.54965,283.40191 c -2.4446,-0.31092 -4.63658,-1.18972 -6.47379,-2.59544 -0.50989,-0.39013 -1.17045,-0.97037 -1.38106,-1.21313 l -0.1236,-0.14247 0.36514,-0.24993 c 0.90977,-0.62271 1.7988,-1.121 2.76535,-1.54994 l 0.38683,-0.17167 0.32721,0.61762 c 0.39638,0.74818 0.63701,1.14172 1.11788,1.82828 0.84756,1.21009 1.80214,2.2711 2.96561,3.29626 0.12558,0.11066 0.20922,0.19918 0.18585,0.19672 -0.0234,-0.002 -0.0843,-0.01 -0.13542,-0.0163 z m 3.16573,-0.16785 c 1.36091,-1.18482 2.62988,-2.67486 3.5562,-4.17572 0.11669,-0.18907 0.35996,-0.62197 0.54059,-0.96199 l 0.32842,-0.61822 0.44943,0.20124 c 0.96966,0.43417 1.89925,0.96176 2.80925,1.5944 l 0.25614,0.17807 -0.0962,0.11717 c -0.11354,0.13835 -0.75153,0.71966 -1.08208,0.98594 -1.95895,1.57811 -4.34349,2.57096 -6.83923,2.84767 l -0.13312,0.0148 z m -2.48427,-0.54795 c -1.38237,-1.18623 -2.56213,-2.56198 -3.50828,-4.09111 -0.24771,-0.40032 -0.79745,-1.41581 -0.77637,-1.43411 0.006,-0.005 0.18913,-0.0647 0.40796,-0.13313 1.25662,-0.39283 2.60334,-0.63616 3.91514,-0.70741 l 0.37917,-0.0206 0.008,3.32345 c 0.004,1.8279 10e-4,3.34258 -0.007,3.36595 -0.0106,0.0291 -0.1428,-0.0668 -0.41816,-0.30305 z m 1.33192,-3.01859 v -3.36656 l 0.38719,0.0203 c 1.28116,0.0671 2.64881,0.31112 3.87189,0.69088 0.24703,0.0767 0.45346,0.14332 0.45874,0.14803 0.005,0.005 -0.0881,0.1968 -0.20751,0.42685 -0.81998,1.57965 -1.91566,3.03909 -3.2713,4.35737 -0.41498,0.40355 -1.18804,1.08972 -1.2277,1.08972 -0.006,0 -0.0113,-1.51495 -0.0113,-3.36656 z m -10.70709,-1.00526 c -0.29901,-0.35976 -0.76378,-1.02493 -1.03912,-1.48717 -0.82533,-1.38552 -1.38505,-2.9828 -1.60267,-4.5736 -0.0423,-0.30909 -0.1098,-1.0286 -0.1098,-1.17016 0,-0.0536 0.0926,-0.0554 2.75679,-0.0554 1.51623,0 2.75678,0.0103 2.75678,0.0229 0,0.0126 0.0144,0.23793 0.0319,0.5007 0.0942,1.41084 0.36827,2.75306 0.82627,4.0473 0.12561,0.35495 0.23567,0.6661 0.24458,0.69145 0.0121,0.0343 -0.0457,0.0719 -0.22579,0.14686 -0.97845,0.40741 -2.31405,1.15627 -3.23465,1.81363 -0.14676,0.1048 -0.27402,0.19054 -0.28279,0.19054 -0.009,0 -0.0635,-0.0572 -0.12152,-0.12704 z m 20.18548,-0.0115 c -0.31818,-0.23425 -1.31237,-0.86091 -1.74606,-1.10057 -0.44515,-0.24599 -1.17061,-0.60107 -1.56246,-0.76475 -0.17858,-0.0746 -0.23799,-0.11316 -0.22675,-0.14718 0.008,-0.0254 0.0997,-0.2785 0.20284,-0.56256 0.44337,-1.22068 0.74104,-2.58065 0.83893,-3.83293 0.0186,-0.23839 0.0414,-0.53097 0.0506,-0.65017 l 0.0167,-0.21672 h 2.75703 2.75703 l -0.0206,0.29145 c -0.1638,2.32148 -0.88097,4.37206 -2.19287,6.27002 -0.24495,0.35437 -0.6166,0.82916 -0.6587,0.8415 -0.0164,0.005 -0.11345,-0.0528 -0.21566,-0.12809 z m -15.50306,-2.38268 c -0.6276,-1.68968 -0.90956,-2.99638 -1.00242,-4.64558 l -0.0139,-0.24662 h 3.0636 3.06361 v 2.02826 2.02825 l -0.43208,0.0206 c -1.38278,0.0661 -2.90703,0.34564 -4.23538,0.77687 l -0.40838,0.13258 z m 10.70191,-0.0397 c -1.31962,-0.42967 -2.83742,-0.70743 -4.23542,-0.77509 l -0.42548,-0.0206 -0.008,-2.03089 c -0.004,-1.11698 -0.006,-2.03312 -0.003,-2.03585 0.003,-0.003 1.38416,-10e-4 3.06961,0.003 l 3.06445,0.008 -0.0115,0.23139 c -0.0553,1.11176 -0.23925,2.23432 -0.53751,3.28044 -0.10843,0.38033 -0.44163,1.3577 -0.49025,1.43806 -0.0136,0.0225 -0.14951,-0.009 -0.42271,-0.098 z m -15.38688,-5.74192 -2.74904,-0.008 3.2e-4,-0.0671 c 1.8e-4,-0.0369 0.0144,-0.22852 0.0317,-0.42582 0.2155,-2.46564 1.04586,-4.61947 2.51522,-6.5241 0.16806,-0.21784 0.31373,-0.39608 0.3237,-0.39608 0.01,0 0.13822,0.0857 0.28498,0.19045 0.90155,0.64341 2.15703,1.35245 3.13205,1.76883 0.17888,0.0764 0.33043,0.14374 0.33677,0.14968 0.006,0.006 -0.0448,0.15599 -0.11362,0.33345 -0.5249,1.35328 -0.86578,2.93033 -0.96771,4.47704 -0.0184,0.27909 -0.0361,0.50777 -0.0394,0.50817 -0.003,4.1e-4 -1.24299,-0.003 -2.75497,-0.007 z m 3.67881,-0.007 c -0.0165,-0.0273 0.0447,-0.87575 0.0928,-1.28539 0.0689,-0.58762 0.18887,-1.22674 0.34415,-1.83401 0.21004,-0.82148 0.56623,-1.84281 0.64267,-1.84281 0.0209,0 0.20453,0.0542 0.40817,0.12041 1.28545,0.41802 2.83066,0.69926 4.20342,0.76506 l 0.42591,0.0204 v 2.02787 2.02788 l -3.05401,0.008 c -1.6797,0.004 -3.05808,10e-4 -3.06306,-0.007 z m 7.03797,-2.02524 0.007,-2.02524 0.13225,-0.007 c 1.72473,-0.0941 2.99233,-0.31282 4.42902,-0.76416 l 0.51636,-0.16222 0.12189,0.33228 c 0.54979,1.49879 0.8127,2.76804 0.91556,4.42012 l 0.0144,0.23167 h -3.07189 -3.07189 z m 7.02623,1.76367 c -0.10251,-1.40914 -0.23606,-2.24456 -0.53163,-3.32557 -0.12505,-0.45734 -0.34851,-1.13484 -0.48091,-1.45805 -0.049,-0.11963 -0.0891,-0.22817 -0.0891,-0.24121 0,-0.013 0.10802,-0.0688 0.24005,-0.12398 0.98287,-0.4105 2.20588,-1.09436 3.1877,-1.78245 0.17312,-0.12132 0.32091,-0.22059 0.32842,-0.22059 0.0206,0 0.29185,0.33811 0.51515,0.64207 1.18766,1.61669 1.97104,3.5508 2.24619,5.54574 0.0397,0.28757 0.11116,1.05088 0.11116,1.18674 0,0.0316 -0.51485,0.0389 -2.75401,0.0389 h -2.754 z m -8.50468,-4.69095 c -0.8479,-0.0593 -1.87709,-0.21453 -2.654,-0.40021 -0.43844,-0.10478 -1.45544,-0.39991 -1.49234,-0.43308 -0.0184,-0.0165 0.59092,-1.14046 0.80137,-1.47814 0.9107,-1.46129 2.07769,-2.82305 3.40692,-3.97555 0.17888,-0.1551 0.36357,-0.31527 0.41042,-0.35594 l 0.0852,-0.0739 v 3.36853 3.36854 l -0.20908,-0.005 c -0.115,-0.003 -0.27181,-0.01 -0.34847,-0.015 z m 1.47867,-3.24163 c 0.004,-1.79836 0.008,-3.31484 0.008,-3.36997 l 3.8e-4,-0.10023 0.22457,0.18903 c 1.49388,1.25744 2.71462,2.661 3.70183,4.25621 0.24756,0.40002 0.79753,1.41583 0.77641,1.43405 -0.0391,0.0338 -0.99754,0.31156 -1.44576,0.41906 -1.00897,0.24197 -1.8712,0.36784 -2.88535,0.42121 l -0.38719,0.0204 z m -6.93103,1.89134 c -0.94996,-0.42543 -1.77067,-0.88598 -2.65576,-1.4903 -0.3487,-0.23808 -0.40638,-0.28846 -0.38154,-0.33327 0.0331,-0.0596 0.55264,-0.54626 0.90189,-0.84473 0.79373,-0.67834 1.84185,-1.36364 2.77751,-1.81603 1.00759,-0.48716 2.11449,-0.85365 3.2615,-1.07984 0.31164,-0.0615 1.1514,-0.18465 1.16556,-0.17098 0.004,0.004 -0.13251,0.12753 -0.30279,0.27537 -0.39331,0.3415 -1.03657,0.97656 -1.43799,1.41968 -1.04871,1.15765 -1.85232,2.29795 -2.55293,3.62257 l -0.32705,0.61834 z m 12.2534,-0.26993 c -1.00521,-1.94841 -2.47268,-3.80467 -4.18181,-5.28978 l -0.215,-0.18681 0.13756,0.0187 c 1.66103,0.2259 2.84036,0.55906 4.16432,1.17643 0.81624,0.38062 1.70879,0.9227 2.4166,1.4677 0.452,0.34804 1.34221,1.14842 1.41977,1.2765 0.0395,0.0652 -1.05466,0.77938 -1.91592,1.25054 -0.37772,0.20663 -1.14138,0.5762 -1.42727,0.69073 l -0.1573,0.063 z"
       id="path29" /></g></svg>
